<?xml version="1.0" encoding="UTF-8"?>
<svg version="1.1" xmlns="http://www.w3.org/2000/svg" width="1024" height="1024">
<path d="M0 0 C337.92 0 675.84 0 1024 0 C1024 337.92 1024 675.84 1024 1024 C686.08 1024 348.16 1024 0 1024 C0 686.08 0 348.16 0 0 Z " fill="#070D1B" transform="translate(0,0)"/>
<path d="M0 0 C1.836763 -0.01029488 1.836763 -0.01029488 3.71063232 -0.02079773 C7.03339594 -0.03584252 10.35559271 -0.0375928 13.67834759 -0.03185534 C16.47096931 -0.02873706 19.26354175 -0.03488529 22.0561564 -0.04089409 C28.65596992 -0.0548835 35.25565386 -0.05342633 41.85546875 -0.04199219 C48.61973806 -0.03053064 55.38360996 -0.0445661 62.14782691 -0.07138866 C67.99458308 -0.09368832 73.84121582 -0.10015083 79.68801141 -0.09431225 C83.1626464 -0.09097355 86.63702723 -0.09314745 90.11162567 -0.11056328 C113.37892676 -0.2159302 135.28601919 0.91217102 152.96191406 18.09545898 C163.92593416 29.70788887 169.44911935 42.97039386 169.43212891 58.96264648 C169.43884613 59.88421036 169.44556335 60.80577423 169.45248413 61.75526428 C169.47138678 64.78408294 169.47538518 67.81267885 169.47753906 70.84155273 C169.48397499 72.96655363 169.49070393 75.09155365 169.49771118 77.21655273 C169.50966659 81.66823374 169.51339406 86.11983728 169.51220703 90.5715332 C169.51200456 96.23548366 169.53924084 101.89892834 169.57375145 107.5627594 C169.59615681 111.95381889 169.60004033 116.3447596 169.59898758 120.73587036 C169.60132561 122.821561 169.61004586 124.90725584 169.62565231 126.9928894 C169.76380363 147.37171707 167.47253415 165.51421969 152.81738281 180.98217773 C143.3160016 189.58196803 129.84617391 197.76058048 116.61863708 197.32002258 C115.27926842 197.18046394 115.27926842 197.18046394 113.9128418 197.03808594 C82.03077899 193.32761085 82.03077899 193.32761085 53.15290833 204.09901428 C43.39567389 212.49733575 35.05805223 222.41971436 27.48550415 232.80357361 C25.55378103 235.10409938 23.81196024 236.29611363 20.83691406 236.77514648 C13.85279094 236.95558736 13.85279094 236.95558736 10.07910156 234.02905273 C7.054114 229.93068248 7.00691927 227.1560696 7.04394531 222.20874023 C7.04536026 221.50129669 7.04677521 220.79385315 7.04823303 220.06497192 C7.05383556 217.80295605 7.06638839 215.54103875 7.07910156 213.27905273 C7.08411624 211.74650208 7.0886792 210.21394987 7.09277344 208.68139648 C7.1038058 204.92224385 7.12107205 201.16316501 7.14160156 197.40405273 C6.54847168 197.425 5.9553418 197.44594727 5.34423828 197.4675293 C-14.51699832 198.07485954 -29.87005971 195.80340269 -45.67089844 182.59155273 C-57.01556315 171.90336048 -63.61848304 157.28989701 -64.12582397 141.69587708 C-64.14346245 140.05937259 -64.15071555 138.42273137 -64.14892578 136.78613281 C-64.15564301 135.88217773 -64.16236023 134.97822266 -64.16928101 134.046875 C-64.18811713 131.08905379 -64.19217808 128.13146127 -64.19433594 125.17358398 C-64.20077451 123.09388643 -64.20750363 121.01418975 -64.21450806 118.93449402 C-64.22644542 114.58472598 -64.2301926 110.23503715 -64.22900391 105.88525391 C-64.22880108 100.3490527 -64.25608227 94.81336686 -64.29054832 89.27728748 C-64.31293789 84.98320751 -64.31683775 80.68924914 -64.31578445 76.39511681 C-64.31812311 74.35604772 -64.32684704 72.31697437 -64.34244919 70.27796364 C-64.47797214 50.73598143 -62.21439063 33.4598475 -48.16699219 18.72045898 C-47.02423828 17.57383789 -47.02423828 17.57383789 -45.85839844 16.40405273 C-45.230625 15.75307617 -44.60285156 15.10209961 -43.95605469 14.43139648 C-32.2170169 3.13908741 -15.71918171 -0.06269831 0 0 Z " fill="#FEFEFE" transform="translate(145.8583984375,397.595947265625)"/>
<path d="M0 0 C8.25 0 16.5 0 25 0 C25.01458252 2.47242188 25.02916504 4.94484375 25.04418945 7.4921875 C25.0946196 15.67860667 25.16122952 23.86483731 25.23571491 32.05107117 C25.28036363 37.01238365 25.31963186 41.97361506 25.34643555 46.93505859 C25.37252338 51.7268333 25.4129645 56.51829509 25.46318626 61.30987549 C25.47981796 63.13417659 25.4913552 64.95853177 25.49761391 66.78289795 C25.50729538 69.34648116 25.53540213 71.90927048 25.56762695 74.47265625 C25.56547432 75.59367989 25.56547432 75.59367989 25.5632782 76.73735046 C25.67682718 83.16162326 27.12098903 88.56833875 31.125 93.75 C39.17093189 100.04681626 46.88547377 101.12383625 57 100 C63.8073642 98.39295646 68.22062174 95.90527853 72 90 C73.97312865 85.22097572 74.30423091 80.80524442 74.31884766 75.69970703 C74.32889328 74.88928452 74.3389389 74.078862 74.34928894 73.24388123 C74.38002517 70.58186512 74.39712933 67.91994914 74.4140625 65.2578125 C74.43278185 63.4054987 74.45235583 61.55319336 74.4727478 59.70089722 C74.52399397 54.83810419 74.56365988 49.97528355 74.60089111 45.11236572 C74.64097792 40.1451539 74.69204891 35.17805624 74.7421875 30.2109375 C74.83885787 20.4740307 74.92227527 10.73707648 75 1 C83.25 1 91.5 1 100 1 C100.06801947 11.74498388 100.12295604 22.48982266 100.15543652 33.23497391 C100.17103254 38.22541613 100.19215894 43.21570227 100.22631836 48.20605469 C100.25912945 53.03011338 100.27689851 57.85402277 100.28463173 62.67818451 C100.29013645 64.51040748 100.30088485 66.34262311 100.31719017 68.1747818 C100.4470072 83.3788532 99.79137343 97.41706613 88.9609375 109.22265625 C77.25501811 120.28743872 62.59536385 123.52089077 46.85449219 123.35351562 C31.97299703 122.84362592 19.23876056 117.90782808 9 107 C1.98848715 98.15255485 -0.16472069 87.69148093 -0.11352539 76.62963867 C-0.11367142 75.79985504 -0.11381744 74.97007141 -0.1139679 74.11514282 C-0.11327333 71.38272453 -0.10550229 68.65037508 -0.09765625 65.91796875 C-0.09579045 64.0193943 -0.09436731 62.12081937 -0.09336853 60.22224426 C-0.0895561 55.23278466 -0.0797367 50.24335432 -0.06866455 45.25390625 C-0.05842303 40.15950923 -0.05386504 35.06510748 -0.04882812 29.97070312 C-0.03811328 19.98045385 -0.0205268 9.99023394 0 0 Z " fill="#FBFBFB" transform="translate(744,443)"/>
<path d="M0 0 C7.92570576 7.26018848 12.93727007 17.86561485 13.875 28.56835938 C13.9752956 31.04967256 14.00105394 33.51674371 13.984375 36 C13.97873535 36.87962402 13.9730957 37.75924805 13.96728516 38.66552734 C13.71838053 52.06448207 10.09475112 62.57469012 0.984375 72.5625 C-8.48148117 81.50448245 -21.12202934 83.78906641 -33.703125 83.55859375 C-44.69248473 82.62307714 -54.57583325 78.44955417 -62.13671875 70.30078125 C-63.67711019 68.3455213 -65.02744578 66.37129702 -66.328125 64.25 C-66.70582031 63.63511719 -67.08351563 63.02023437 -67.47265625 62.38671875 C-74.25030187 50.12603397 -75.17721226 35.23613795 -72.078125 21.75 C-68.68973003 10.21702261 -62.51277459 0.91867044 -51.890625 -5.25 C-35.19696238 -13.45771745 -14.78685956 -11.11495483 0 0 Z " fill="#FCFCFC" transform="translate(578.328125,482.75)"/>
<path d="M0 0 C2.93350408 2.0696116 4.73698463 3.68805048 5.46022224 7.29563904 C5.64588273 10.25330419 5.66382652 13.17329955 5.63110352 16.13671875 C5.63825882 17.2608316 5.64541412 18.38494446 5.65278625 19.54312134 C5.6696927 23.2583278 5.65025743 26.97233099 5.62890625 30.6875 C5.62973476 33.26912537 5.63219345 35.85075068 5.63621521 38.43237305 C5.63907458 43.84278616 5.62488752 49.25275396 5.59692383 54.66308594 C5.56487292 60.91226163 5.56488842 67.16081322 5.5821386 73.41003323 C5.59801958 79.42917979 5.59116242 85.4480365 5.57420158 91.4671936 C5.56901576 94.02527352 5.5695064 96.58337141 5.57574654 99.14144897 C5.58119246 102.71578721 5.56084124 106.28906392 5.53344727 109.86328125 C5.53997314 110.92213531 5.54649902 111.98098938 5.55322266 113.07192993 C5.49526888 117.5157252 5.44701251 120.23977328 3.16221619 124.12548828 C-0.01123448 126.87667963 -1.79224344 127.14011702 -6 127 C-9.53037095 125.68044394 -12.69235526 123.84119382 -15.9375 121.9375 C-17.35385742 121.13505859 -17.35385742 121.13505859 -18.79882812 120.31640625 C-21.87766775 118.5639913 -24.9390882 116.78351969 -28 115 C-30.1884444 113.74026383 -32.3772494 112.48115392 -34.56640625 111.22265625 C-38.69689104 108.83702797 -42.8231761 106.44465687 -46.9375 104.03125 C-48.18853516 103.29745117 -48.18853516 103.29745117 -49.46484375 102.54882812 C-50.30144531 102.03771484 -51.13804687 101.52660156 -52 101 C-53.02823883 100.44805969 -54.05647766 99.89611938 -55.11587524 99.32745361 C-58 97 -58 97 -58.7215271 93.8994751 C-58.70820343 92.68257996 -58.69487976 91.46568481 -58.68115234 90.21191406 C-58.6820285 89.53833359 -58.68290466 88.86475311 -58.68380737 88.17076111 C-58.67963724 85.9511895 -58.63302452 83.73466623 -58.5859375 81.515625 C-58.57474302 79.97436169 -58.56620402 78.43307698 -58.56021118 76.89178467 C-58.53733181 72.84044157 -58.47841891 68.79039482 -58.4119873 64.73956299 C-58.35054394 60.60389748 -58.32319195 56.4680219 -58.29296875 52.33203125 C-58.22867247 44.22076008 -58.12630655 36.11054142 -58 28 C-57.21889359 27.55491592 -56.43778717 27.10983185 -55.63301086 26.65126038 C-52.66853769 24.96144297 -49.70457261 23.27074064 -46.74092102 21.57948303 C-45.47062856 20.85479621 -44.20014823 20.13043858 -42.92945862 19.40644836 C-33.31120333 13.92590611 -23.74282756 8.36985226 -14.2492981 2.67495728 C-9.22448756 -0.30016256 -5.83207947 -2.1161912 0 0 Z " fill="#FCFCFC" transform="translate(381,439)"/>
<path d="M0 0 C8.25 0 16.5 0 25 0 C25.01458252 1.92191162 25.02916504 3.84382324 25.04418945 5.82397461 C25.09601471 12.20231828 25.16134665 18.58041412 25.23571491 24.95853329 C25.28027942 28.82235023 25.31956529 32.68606511 25.34643555 36.55004883 C25.37260865 40.28500484 25.41310746 44.01956512 25.46318626 47.75427437 C25.47976099 49.17303068 25.49133339 50.59185528 25.49761391 52.0106945 C25.48784738 65.31527895 25.48784738 65.31527895 31.3125 76.875 C36.90246851 81.2949751 41.17846847 82.58004523 48.25 82.33984375 C53.39870008 81.70356973 57.23027923 80.15367516 60.56640625 76.09375 C64.21772459 70.51794763 65.11631655 66.15001821 65.20532227 59.48730469 C65.21522186 58.84298492 65.22512146 58.19866516 65.23532104 57.53482056 C65.26680429 55.41387555 65.29164103 53.29290819 65.31640625 51.171875 C65.33698718 49.69784985 65.35798395 48.22383045 65.37937927 46.74981689 C65.4344824 42.87667509 65.48394334 39.00348105 65.53222656 35.13024902 C65.58252763 31.17532726 65.63816871 27.22048102 65.69335938 23.265625 C65.80079707 15.51047893 65.90178006 7.7552693 66 0 C74.25 0 82.5 0 91 0 C91.06822102 8.36354702 91.12306971 16.72687176 91.15543652 25.09062386 C91.17098374 28.97572427 91.19201728 32.86062178 91.22631836 36.74560547 C91.25930829 40.5063255 91.27693489 44.2668524 91.28463173 48.02770615 C91.29010516 49.45078439 91.30078934 50.87385404 91.31719017 52.2968483 C91.45987959 65.21001926 90.61020156 78.12828348 83 89 C82.56945312 89.62390625 82.13890625 90.2478125 81.6953125 90.890625 C75.0096603 99.57819566 64.52840219 103.97836506 54 106 C40.80266465 107.47871081 27.90930837 105.65930306 16.98828125 97.61328125 C16.00408203 96.81470703 16.00408203 96.81470703 15 96 C14.37480469 95.49855469 13.74960938 94.99710938 13.10546875 94.48046875 C5.11426561 87.32494698 1.40271707 77.41193809 0 67 C-0.26029715 61.7869972 -0.23418147 56.58430691 -0.1953125 51.3671875 C-0.19157426 49.87932527 -0.18873113 48.39146056 -0.18673706 46.90359497 C-0.17916434 43.02055862 -0.15957193 39.13767603 -0.1373291 35.25469971 C-0.11673222 31.27919595 -0.10770598 27.30366693 -0.09765625 23.328125 C-0.07631884 15.55200569 -0.04119003 7.77604414 0 0 Z " fill="#090F1C" transform="translate(156,446)"/>
<path d="M0 0 C8.4669176 4.87694454 12.12939969 11.15998148 15.04858398 20.27368164 C16.5806705 26.53886472 16.24562333 32.93518066 16.1953125 39.34375 C16.19157576 40.72236932 16.18873191 42.10099132 16.18673706 43.47961426 C16.17915258 47.08320634 16.15954962 50.68663355 16.1373291 54.29016113 C16.11675802 57.97727225 16.10771142 61.66441037 16.09765625 65.3515625 C16.07629799 72.56779169 16.04115915 79.78385161 16 87 C8.08 87 0.16 87 -8 87 C-8.01458252 85.30472168 -8.02916504 83.60944336 -8.04418945 81.86279297 C-8.0959418 76.24676871 -8.16125465 70.63101044 -8.23571491 65.01524162 C-8.28034577 61.61207343 -8.3196173 58.20902293 -8.34643555 54.80566406 C-8.37754229 50.88841433 -8.43232892 46.97166424 -8.48828125 43.0546875 C-8.49467117 41.83884979 -8.5010611 40.62301208 -8.50764465 39.37033081 C-8.6326255 32.16773303 -9.1441247 27.30210582 -14 21.6875 C-18.12535475 18.20673193 -22.83687837 18.66208413 -27.984375 18.73046875 C-32.53725403 19.13739706 -34.46473357 20.05394464 -38 23 C-42.45286172 29.92307715 -42.60096977 35.93384809 -42.609375 44.03125 C-42.62591125 45.26290894 -42.64244751 46.49456787 -42.65948486 47.7635498 C-42.70785187 51.67575119 -42.72931201 55.5875641 -42.75 59.5 C-42.77598378 62.16151666 -42.80809737 64.8229157 -42.83984375 67.484375 C-42.91690255 73.98976013 -42.95753218 80.49393027 -43 87 C-50.92 87 -58.84 87 -67 87 C-67 57.96 -67 28.92 -67 -1 C-59.41 -1 -51.82 -1 -44 -1 C-43.67 3.29 -43.34 7.58 -43 12 C-42.175 10.783125 -41.35 9.56625 -40.5 8.3125 C-31.11229578 -4.19705869 -13.81605587 -6.4367648 0 0 Z " fill="#FAFAFA" transform="translate(710,476)"/>
<path d="M0 0 C5.93366465 5.09456056 9.14964956 9.97667732 10.93359375 17.66015625 C10.93359375 18.32015625 10.93359375 18.98015625 10.93359375 19.66015625 C7.35087599 19.83455215 3.76924773 19.94103283 0.18359375 20.03515625 C-1.34007812 20.11056641 -1.34007812 20.11056641 -2.89453125 20.1875 C-5.73606073 20.24358282 -8.28067529 20.23113393 -11.06640625 19.66015625 C-13.56640625 16.75390625 -13.56640625 16.75390625 -15.06640625 13.66015625 C-20.01277675 10.80648096 -24.46782646 9.82585809 -30.06640625 10.66015625 C-33.58174489 11.73543631 -36.43142202 13.02517202 -39.06640625 15.66015625 C-39.56682771 18.57553654 -39.56682771 18.57553654 -39.06640625 21.66015625 C-36.25485673 25.14018607 -33.7621221 26.39291982 -29.50390625 27.59765625 C-27.79460938 28.09072266 -27.79460938 28.09072266 -26.05078125 28.59375 C-23.13139218 29.38784176 -20.20214706 30.13919322 -17.26953125 30.8828125 C-16.4401001 31.09494385 -15.61066895 31.3070752 -14.75610352 31.52563477 C-13.12884177 31.9382851 -11.49918439 32.34163841 -9.86694336 32.73413086 C-2.66666731 34.54120845 4.03651852 36.81878673 8.87109375 42.72265625 C9.43699219 43.39425781 10.00289062 44.06585937 10.5859375 44.7578125 C14.52602116 50.31961175 13.40263543 58.15475202 12.93359375 64.66015625 C11.295688 71.38913212 6.4687097 75.7963897 0.93359375 79.66015625 C-11.09911308 86.61961371 -26.071484 87.47406737 -39.44140625 84.47265625 C-49.3537264 81.59874866 -56.89770367 76.85524789 -62.1640625 67.765625 C-63.79945026 64.2742623 -64.1763658 61.456995 -64.06640625 57.66015625 C-60.48368849 57.48576035 -56.90206023 57.37927967 -53.31640625 57.28515625 C-52.300625 57.23488281 -51.28484375 57.18460938 -50.23828125 57.1328125 C-47.39754701 57.07674538 -44.85170256 57.09126169 -42.06640625 57.66015625 C-39.5859375 60.53515625 -39.5859375 60.53515625 -38.06640625 63.66015625 C-33.23072792 67.68809321 -27.73557662 68.2255852 -21.625 67.98828125 C-18.25400946 67.55597101 -15.85675447 66.59193578 -13.06640625 64.66015625 C-10.78086594 61.78278543 -10.78086594 61.78278543 -10.87890625 58.22265625 C-11.65413973 54.68377487 -11.65413973 54.68377487 -13.77099609 53.52075195 C-19.7130423 50.98880282 -25.55416344 49.52743785 -31.87890625 48.28515625 C-42.64098206 45.98592024 -52.83113783 43.50290452 -59.98046875 34.46875 C-64.16977314 27.49159916 -64.37537797 19.08052908 -62.484375 11.25 C-59.218489 3.7489011 -52.2720156 -1.68851827 -44.87890625 -4.77734375 C-30.87337879 -9.95683401 -12.16894959 -9.08763758 0 0 Z " fill="#FCFCFC" transform="translate(920.06640625,480.33984375)"/>
<path d="M0 0 C7.92 0 15.84 0 24 0 C24.09086781 10.80627946 24.16404028 21.61229944 24.20724869 32.41887665 C24.22800096 37.43841403 24.25608877 42.45767336 24.30175781 47.47705078 C24.34566148 52.33355894 24.36922967 57.18980201 24.37950897 62.04649353 C24.38682135 63.88659327 24.40109703 65.72668079 24.42292023 67.56666565 C24.60785767 83.82652224 23.67387752 99.36936537 12.22265625 111.953125 C3.40008786 120.54114659 -8.35852786 122.38922592 -20.23046875 122.27734375 C-29.65233111 121.58412901 -38.93618946 118.42164595 -46 112 C-52.52457854 104.39994148 -55 96.9105247 -55 87 C-47.41 87 -39.82 87 -32 87 C-30.68 89.64 -29.36 92.28 -28 95 C-25.58611898 98.01735127 -24.01459553 98.87740304 -20.1875 99.33984375 C-14.465026 99.51516464 -10.77719403 99.38837755 -6 96 C-0.84663316 90.65576772 -0.70080479 83.4044928 -0.68115234 76.40258789 C-0.66608391 75.15747437 -0.66608391 75.15747437 -0.65071106 73.88720703 C-0.62002059 71.16569663 -0.60288351 68.44428395 -0.5859375 65.72265625 C-0.56721446 63.82693143 -0.54764021 61.93121485 -0.5272522 60.0355072 C-0.47604499 55.06258002 -0.43635832 50.08962585 -0.39910889 45.11657715 C-0.35899754 40.03533312 -0.30793779 34.95420024 -0.2578125 29.87304688 C-0.16118832 19.91543511 -0.07775315 9.95777702 0 0 Z " fill="#FDFDFD" transform="translate(469,444)"/>
<path d="M0 0 C7.59 0 15.18 0 23 0 C23 29.04 23 58.08 23 88 C15.41 88 7.82 88 0 88 C0 58.96 0 29.92 0 0 Z " fill="#FEFEFE" transform="translate(604,475)"/>
<path d="M0 0 C4.98011361 2.77890339 7.54667987 7.53670497 9.8125 12.625 C12.53978988 22.66410386 11.8438998 33.84343678 7.375 43.1875 C4.7228198 47.32490112 1.62824291 49.78638623 -3.16796875 51.21484375 C-8.53135519 52.30411953 -12.59812383 52.31594347 -17.375 49.625 C-23.13204147 45.58715363 -25.97111154 40.47787358 -27.5 33.6875 C-29.06479933 23.95593847 -28.63460966 14.80692668 -23.39453125 6.23046875 C-17.60084187 -1.47570062 -8.88413316 -3.63907762 0 0 Z " fill="#0A0F1B" transform="translate(557.1875,494.375)"/>
<path d="M0 0 C3.03906147 2.09839959 4.25243948 3.38109871 5.625 6.8125 C6.17268238 11.74164139 6.16781153 13.80174749 3.8125 18.1875 C1.35027822 21.14216613 -0.21980626 22.65414011 -4.08203125 23.18359375 C-13.49775409 23.38493625 -13.49775409 23.38493625 -17.0625 20.4375 C-20.67921551 16.33203915 -20.71401236 13.62472405 -20.66015625 8.29296875 C-20.25636394 4.78052881 -18.98722617 3.13447882 -16.375 0.8125 C-11.10106699 -2.30993314 -5.66303738 -1.99255019 0 0 Z " fill="#FBFBFB" transform="translate(623.375,441.1875)"/>
<path d="M0 0 C8.25 0 16.5 0 25 0 C25 19.8 25 39.6 25 60 C24.01 60.495 24.01 60.495 23 61 C23 41.53 23 22.06 23 2 C16.07 2 9.14 2 2 2 C2.00523682 3.76110107 2.01047363 5.52220215 2.01586914 7.33666992 C2.03201305 13.16406613 2.04349337 18.99146156 2.05181217 24.81887341 C2.05702433 28.35102274 2.06409164 31.88314782 2.07543945 35.4152832 C2.08841195 39.47868072 2.093242 43.54205286 2.09765625 47.60546875 C2.10281754 48.8702153 2.10797882 50.13496185 2.11329651 51.43803406 C2.11337204 52.61888077 2.11344757 53.79972748 2.11352539 55.01635742 C2.115746 56.05338303 2.11796661 57.09040863 2.12025452 58.15885925 C2.00509993 60.87950872 1.61402376 63.35156042 1 66 C0.67 66 0.34 66 0 66 C0 44.22 0 22.44 0 0 Z " fill="#000208" transform="translate(222,446)"/>
<path d="M0 0 C8.25 0 16.5 0 25 0 C25 21.78 25 43.56 25 66 C24.67 66 24.34 66 24 66 C24 44.88 24 23.76 24 2 C16.74 2 9.48 2 2 2 C2 21.14 2 40.28 2 60 C1.01 60.495 1.01 60.495 0 61 C0 40.87 0 20.74 0 0 Z " fill="#000105" transform="translate(156,446)"/>
<path d="M0 0 C7.59 0 15.18 0 23 0 C23 10.23 23 20.46 23 31 C22.01 31 21.02 31 20 31 C20 21.43 20 11.86 20 2 C13.4 1.67 6.8 1.34 0 1 C0 0.67 0 0.34 0 0 Z " fill="#1B1D23" transform="translate(130,595)"/>
<path d="M0 0 C-6.31160316 2.60528091 -12.24371741 3.30109579 -19 3.3125 C-19.754021 3.31765625 -20.50804199 3.3228125 -21.28491211 3.328125 C-26.74118457 3.25881543 -26.74118457 3.25881543 -29 1 C-26.6825535 -0.15872325 -25.39807403 -0.10211894 -22.82421875 -0.0625 C-21.99599609 -0.05476562 -21.16777344 -0.04703125 -20.31445312 -0.0390625 C-18.57486719 -0.01319505 -16.83528381 0.01284425 -15.09570312 0.0390625 C-10.11526953 0.08535623 -4.60465969 -1.53488656 0 0 Z " fill="#161820" transform="translate(220,549)"/>
<path d="M0 0 C0 0.99 0 1.98 0 3 C-1.95689659 3.22142255 -3.91561952 3.4267568 -5.875 3.625 C-7.51082031 3.79902344 -7.51082031 3.79902344 -9.1796875 3.9765625 C-10.57574219 3.98816406 -10.57574219 3.98816406 -12 4 C-12.66 3.34 -13.32 2.68 -14 2 C-9.07262981 0.02905192 -5.21979128 -0.1799928 0 0 Z " fill="#24262D" transform="translate(898,490)"/>
<path d="M0 0 C3.96 0 7.92 0 12 0 C12.33 0.66 12.66 1.32 13 2 C9.85069107 3.04976964 7.61185544 3.10131595 4.3125 3.0625 C3.31863281 3.05347656 2.32476563 3.04445313 1.30078125 3.03515625 C0.16189453 3.01775391 0.16189453 3.01775391 -1 3 C-0.67 2.01 -0.34 1.02 0 0 Z " fill="#171921" transform="translate(891,546)"/>
<path d="M0 0 C0.33 0.66 0.66 1.32 1 2 C0.67 2.66 0.34 3.32 0 4 C-4.29 4 -8.58 4 -13 4 C-13 3.67 -13 3.34 -13 3 C-8.71 2.01 -4.42 1.02 0 0 Z " fill="#181A20" transform="translate(915,562)"/>
<path d="M0 0 C0.33 0 0.66 0 1 0 C2.42857143 8.42857143 2.42857143 8.42857143 0 13 C-1.44977894 10.65887549 -2.04314411 9.4203071 -1.7578125 6.640625 C-1.54898438 5.85171875 -1.34015625 5.0628125 -1.125 4.25 C-0.92132812 3.45078125 -0.71765625 2.6515625 -0.5078125 1.828125 C-0.34023438 1.22484375 -0.17265625 0.6215625 0 0 Z " fill="#181A22" transform="translate(843,528)"/>
<path d="M0 0 C2.5654594 2.5654594 2.54046087 4.47686668 3 8 C2.01 8.495 2.01 8.495 1 9 C1 7.68 1 6.36 1 5 C0.34 5 -0.32 5 -1 5 C-0.67 3.35 -0.34 1.7 0 0 Z " fill="#181A21" transform="translate(505,529)"/>
<path d="M0 0 C1.88343932 3.76687864 2.22057835 5.02958963 2 9 C1.01 9 0.02 9 -1 9 C-0.67 6.03 -0.34 3.06 0 0 Z " fill="#17181F" transform="translate(493,524)"/>
</svg>
